<svg width="16" height="13" viewBox="0 0 16 13" fill="none" xmlns="http://www.w3.org/2000/svg">
<path d="M15.2223 13H0.779292C0.500874 13 0.243609 12.8623 0.104403 12.6389C-0.0348027 12.4154 -0.0348009 12.1401 0.104408 11.9166L7.32551 0.360473C7.46482 0.137375 7.72187 0 8 0C8.27813 0 8.53518 0.137375 8.67449 0.360473L15.8956 11.9166C16.0347 12.14 16.0348 12.4151 15.8958 12.6386C15.7568 12.862 15.4998 12.9997 15.2215 13H15.2223ZM8.00117 2.16612L2.13218 11.5555H13.8717L8.00117 2.16612ZM8.77658 8.66717H7.21796V5.05515H8.77658V8.66717Z" fill="#F44771"/>
<path d="M7.22186 9.39015H8.78048V10.8347H7.22186V9.39015Z" fill="#F44771"/>
</svg>
