<svg width="21" height="27" viewBox="0 0 21 27" fill="none" xmlns="http://www.w3.org/2000/svg">
<g clip-path="url(#clip0)">
<path d="M2.8739 21.3529C3.15265 18.8608 5.2597 16.9763 7.76728 16.9763H14.8662C17.3738 16.9763 19.4809 18.8608 19.7596 21.3529L20.5031 28H2.13037L2.8739 21.3529Z" fill="#FFD4C7"/>
<mask id="mask0" mask-type="alpha" maskUnits="userSpaceOnUse" x="2" y="16" width="19" height="12">
<path d="M2.8739 21.3529C3.15265 18.8608 5.2597 16.9763 7.76728 16.9763H14.8662C17.3738 16.9763 19.4809 18.8608 19.7596 21.3529L20.5031 28H2.13037L2.8739 21.3529Z" fill="#00D355"/>
</mask>
<g mask="url(#mask0)">
<path d="M3.31482 21.3529C3.59357 18.8608 5.70061 16.9763 8.2082 16.9763H15.3072C17.8147 16.9763 19.9218 18.8608 20.2005 21.3529L20.9441 28H2.57129L3.31482 21.3529Z" fill="#FFB7A0"/>
<path d="M3.75573 21.3529C4.03449 18.8608 6.14153 16.9763 8.64912 16.9763H15.7481C18.2557 16.9763 20.3627 18.8608 20.6415 21.3529L21.385 28H3.01221L3.75573 21.3529Z" fill="url(#paint0_linear)"/>
</g>
<path fill-rule="evenodd" clip-rule="evenodd" d="M6.24586 23.5905C6.36763 23.5905 6.46634 23.6892 6.46634 23.811V28C6.46634 28.1217 6.36763 28.2205 6.24586 28.2205C6.1241 28.2205 6.02539 28.1217 6.02539 28V23.811C6.02539 23.6892 6.1241 23.5905 6.24586 23.5905Z" fill="url(#paint1_linear)"/>
<path fill-rule="evenodd" clip-rule="evenodd" d="M15.9465 23.5905C16.0683 23.5905 16.167 23.6892 16.167 23.811V28C16.167 28.1217 16.0683 28.2205 15.9465 28.2205C15.8248 28.2205 15.7261 28.1217 15.7261 28V23.811C15.7261 23.6892 15.8248 23.5905 15.9465 23.5905Z" fill="url(#paint2_linear)"/>
</g>
<g clip-path="url(#clip1)">
<path d="M10.1464 12.9588H12.0831L12.5931 16.9205C12.7078 17.8119 12.0135 18.6013 11.1148 18.6013C10.216 18.6013 9.52172 17.8119 9.63645 16.9205L10.1464 12.9588Z" fill="#FBC6D7"/>
<mask id="mask1" mask-type="alpha" maskUnits="userSpaceOnUse" x="9" y="12" width="4" height="7">
<path d="M10.1464 12.9588H12.0831L12.5931 16.9205C12.7078 17.8119 12.0135 18.6013 11.1148 18.6013C10.216 18.6013 9.52172 17.8119 9.63645 16.9205L10.1464 12.9588Z" fill="#FF7CA6"/>
</mask>
<g mask="url(#mask1)">
<path d="M10.2271 12.9588H12.1639L12.406 14.2485C11.7456 15.2733 10.8727 15.377 9.58154 15.6995L10.2271 12.9588Z" fill="#FF7CA6"/>
</g>
<path d="M6.69334 8.07023C6.88233 8.66436 6.65679 9.26583 6.18957 9.41367C5.72235 9.56151 5.19038 9.19972 5.00139 8.6056C4.81239 8.01148 5.03794 7.41 5.50515 7.26216C5.97237 7.11432 6.50434 7.47611 6.69334 8.07023Z" fill="#FBC6D7"/>
<path d="M6.50106 8.13692C6.62419 8.52441 6.46244 8.92139 6.13977 9.0236C5.8171 9.1258 5.45571 8.89453 5.33257 8.50704C5.20944 8.11955 5.37119 7.72257 5.69386 7.62036C6.01653 7.51815 6.37792 7.74942 6.50106 8.13692Z" fill="#FF7CA6"/>
<path d="M15.6526 8.39269C15.4636 8.98681 15.6892 9.58829 16.1564 9.73613C16.6236 9.88396 17.1556 9.52218 17.3446 8.92805C17.5336 8.33393 17.308 7.73245 16.8408 7.58461C16.3736 7.43677 15.8416 7.79856 15.6526 8.39269Z" fill="#FBC6D7"/>
<path d="M15.8449 8.45936C15.7218 8.84686 15.8835 9.24383 16.2062 9.34604C16.5288 9.44825 16.8902 9.21698 17.0134 8.82948C17.1365 8.44199 16.9748 8.04501 16.6521 7.94281C16.3294 7.8406 15.968 8.07187 15.8449 8.45936Z" fill="#FF7CA6"/>
<path d="M15.9567 8.76731C15.9567 11.8836 13.789 14.4098 11.1148 14.4098C8.44074 14.4098 6.27295 11.8836 6.27295 8.76731C6.27295 5.65105 8.44074 3.12482 11.1148 3.12482C13.789 3.12482 15.9567 5.65105 15.9567 8.76731Z" fill="#FBC6D7"/>
<mask id="mask2" mask-type="alpha" maskUnits="userSpaceOnUse" x="6" y="3" width="10" height="12">
<path d="M15.957 8.76731C15.957 11.8836 13.7892 14.4098 11.1151 14.4098C8.44099 14.4098 6.27319 11.8836 6.27319 8.76731C6.27319 5.65105 8.44099 3.12482 11.1151 3.12482C13.7892 3.12482 15.957 5.65105 15.957 8.76731Z" fill="#FBC6D7"/>
</mask>
<g mask="url(#mask2)">
<path d="M15.9479 11.244C15.9479 11.9746 15.3557 12.5669 14.6251 12.5669C13.8945 12.5669 13.3022 11.9746 13.3022 11.244C13.3022 10.5135 13.8945 9.9212 14.6251 9.9212C15.3557 9.9212 15.9479 10.5135 15.9479 11.244Z" fill="#FF5E5E"/>
<path d="M9.11321 11.244C9.11321 11.9746 8.52096 12.5669 7.79037 12.5669C7.05979 12.5669 6.46753 11.9746 6.46753 11.244C6.46753 10.5135 7.05979 9.9212 7.79037 9.9212C8.52096 9.9212 9.11321 10.5135 9.11321 11.244Z" fill="#FF5E5E"/>
</g>
<path fill-rule="evenodd" clip-rule="evenodd" d="M12.1054 12.4917C12.147 12.5614 12.1241 12.6517 12.0544 12.6932C11.733 12.8846 11.4591 13.0032 11.173 13.0077C10.8844 13.0123 10.6086 12.9006 10.2827 12.6905C10.2145 12.6465 10.1948 12.5555 10.2388 12.4873C10.2828 12.4191 10.3738 12.3994 10.442 12.4434C10.7477 12.6405 10.9644 12.717 11.1684 12.7138C11.3749 12.7106 11.5936 12.6255 11.9039 12.4407C11.9737 12.3991 12.0639 12.422 12.1054 12.4917Z" fill="#FF7FA8"/>
<path d="M9.2603 8.74534C9.2603 9.11064 9.09579 9.40676 8.89285 9.40676C8.68991 9.40676 8.52539 9.11064 8.52539 8.74534C8.52539 8.38005 8.68991 8.08392 8.89285 8.08392C9.09579 8.08392 9.2603 8.38005 9.2603 8.74534Z" fill="#3B2144"/>
<path d="M13.6697 8.74534C13.6697 9.11064 13.5052 9.40676 13.3023 9.40676C13.0993 9.40676 12.9348 9.11064 12.9348 8.74534C12.9348 8.38005 13.0993 8.08392 13.3023 8.08392C13.5052 8.08392 13.6697 8.38005 13.6697 8.74534Z" fill="#3B2144"/>
<path fill-rule="evenodd" clip-rule="evenodd" d="M10.9138 8.34113C10.995 8.34113 11.0608 8.40693 11.0608 8.48811V10.5181L11.7338 10.4011C11.8138 10.3871 11.8899 10.4407 11.9038 10.5207C11.9177 10.6007 11.8641 10.6768 11.7842 10.6907L10.939 10.8376C10.8963 10.8451 10.8524 10.8333 10.8192 10.8053C10.786 10.7774 10.7668 10.7362 10.7668 10.6928V8.48811C10.7668 8.40693 10.8327 8.34113 10.9138 8.34113Z" fill="#FF7FA8"/>
</g>
<path fill-rule="evenodd" clip-rule="evenodd" d="M13.3062 7.02033C13.0536 7.03936 12.8169 7.18643 12.6565 7.4127C12.6212 7.46237 12.5524 7.47407 12.5028 7.43885C12.4531 7.40363 12.4414 7.33482 12.4766 7.28516C12.6688 7.01423 12.9615 6.8252 13.2897 6.80048C13.6215 6.77548 13.9704 6.91978 14.2682 7.27852C14.3071 7.32537 14.3006 7.39487 14.2538 7.43376C14.2069 7.47264 14.1374 7.46619 14.0985 7.41934C13.8383 7.10588 13.5552 7.00158 13.3062 7.02033Z" fill="#FF7FA8"/>
<path fill-rule="evenodd" clip-rule="evenodd" d="M8.52912 7.16742C8.27654 7.18645 8.03984 7.33352 7.87936 7.55978C7.84414 7.60944 7.77533 7.62115 7.72567 7.58593C7.67601 7.55071 7.66431 7.4819 7.69953 7.43224C7.89167 7.16132 8.18439 6.9723 8.51256 6.94757C8.84438 6.92258 9.1933 7.06688 9.49108 7.4256C9.52997 7.47245 9.52351 7.54195 9.47667 7.58083C9.42982 7.61972 9.36032 7.61327 9.32144 7.56642C9.06124 7.25297 8.77806 7.14867 8.52912 7.16742Z" fill="#FF7FA8"/>
<path fill-rule="evenodd" clip-rule="evenodd" d="M8.71506 13.675C7.54673 12.894 6.69356 11.5442 6.43309 9.94915L6.40928 9.94463C6.31424 10.9558 6.45089 11.3923 6.53238 11.6526C6.56288 11.75 6.58565 11.8227 6.58565 11.8917C5.60007 10.9061 5.60879 10.1925 5.88627 9.64976C5.855 9.61343 5.82558 9.57356 5.79804 9.52994C5.50167 9.42281 5.23671 9.14079 5.11614 8.76078C4.93312 8.18391 5.15219 7.59969 5.60545 7.45589C5.77516 7.40204 5.95364 7.41758 6.12014 7.48837L6.12014 7.48812C5.9537 7.41739 5.77528 7.40188 5.60563 7.45571C5.52511 7.48125 5.45198 7.5207 5.38718 7.57154C4.79332 4.88195 6.14654 1.45188 10.4398 1.45188C10.6603 1.42684 10.8735 1.40961 11.0796 1.39973C10.5872 0.884441 9.95087 0.474291 9.15799 0.197425C5.94878 -0.585306 3.39583 0.955246 1.95684 4.89385C1.41737 6.3704 1.73342 8.25797 2.06716 10.2512C2.62366 13.5748 3.22934 17.1921 0 19.6875C1.51034 19.6875 3.52231 19.2962 4.38332 17.1045C4.38332 17.7488 3.45074 18.8341 3.18718 19.1408C3.09853 19.2439 3.08557 19.259 3.20922 19.1396C7.24364 18.8835 7.58263 17.3175 7.85256 16.0706C7.91257 15.7934 7.96916 15.532 8.06217 15.3042C8.2314 14.7213 8.45533 14.1844 8.71506 13.675Z" fill="#3D0525"/>
<path fill-rule="evenodd" clip-rule="evenodd" d="M6.41834 9.85302C6.42308 9.88517 6.42806 9.91721 6.43328 9.94916C6.42522 9.94772 6.41721 9.9462 6.40925 9.9446C6.31421 10.9557 6.45086 11.3922 6.53235 11.6525C6.56285 11.75 6.58562 11.8227 6.58562 11.8916C5.60004 10.906 5.60876 10.1925 5.88624 9.64972C5.8549 9.61331 5.82541 9.57334 5.79782 9.5296C5.84199 9.54559 5.88686 9.55769 5.93205 9.56566C6.02943 9.39727 6.15054 9.24589 6.27144 9.1082C6.06029 8.86708 6.08115 8.39597 6.10713 7.80901C6.11172 7.70544 6.11646 7.59825 6.12012 7.48809C5.95367 7.41736 5.77526 7.40185 5.6056 7.45568C5.52508 7.48122 5.45195 7.52067 5.38715 7.57151C4.79329 4.88192 6.14652 1.45185 10.4398 1.45185C16.6404 0.747831 17.0623 6.21455 16.1963 7.76293C16.0765 7.7952 15.9604 7.85617 15.8551 7.94099C15.8396 8.05184 15.8237 8.16246 15.808 8.2726C15.7773 8.48681 15.747 8.69919 15.7195 8.90795L15.7372 8.9272C16.2856 9.52384 17.085 10.3935 15.5868 11.8916C15.5868 11.8227 15.6096 11.75 15.6401 11.6525C15.7379 11.34 15.9152 10.7735 15.6756 9.26329L15.6709 9.30572C15.436 7.58371 13.5575 4.29622 12.3834 4.29622C11.4441 4.29622 11.2615 6.48788 11.2875 7.34889C10.5361 6.97317 10.2439 5.00068 10.1917 4.29622C9.1272 4.79717 8.70452 7.08797 8.62625 7.74025C8.00006 7.36454 8.36534 5.31377 8.62625 4.76586C8.04191 4.61977 7.27769 6.83097 6.78268 8.26323L6.78267 8.26325C6.69983 8.50297 6.62452 8.72086 6.55886 8.90223C6.49205 9.26428 6.44693 9.57882 6.41834 9.85302Z" fill="#4C062E"/>
<defs>
<linearGradient id="paint0_linear" x1="12.1986" y1="16.9763" x2="12.1986" y2="23.37" gradientUnits="userSpaceOnUse">
<stop stop-color="#FFAF8D"/>
<stop offset="1" stop-color="#FFB672"/>
</linearGradient>
<linearGradient id="paint1_linear" x1="6.28261" y1="23.811" x2="6.28261" y2="28" gradientUnits="userSpaceOnUse">
<stop stop-color="#ECAA48" stop-opacity="0"/>
<stop offset="1" stop-color="#FF9D43"/>
</linearGradient>
<linearGradient id="paint2_linear" x1="15.9833" y1="23.811" x2="15.9833" y2="28" gradientUnits="userSpaceOnUse">
<stop stop-color="#ECAA48" stop-opacity="0"/>
<stop offset="1" stop-color="#FF9D43"/>
</linearGradient>
<clipPath id="clip0">
<rect width="18.3728" height="11.0237" fill="white" transform="translate(2.13037 16.9763)"/>
</clipPath>
<clipPath id="clip1">
<rect width="13.0277" height="15.4766" fill="white" transform="translate(4.65918 3.12482)"/>
</clipPath>
</defs>
</svg>
