<svg width="19" height="19" viewBox="0 0 19 19" fill="none" xmlns="http://www.w3.org/2000/svg">
<path fill-rule="evenodd" clip-rule="evenodd" d="M9.5 6C7.567 6 6 7.567 6 9.5C6 11.433 7.567 13 9.5 13C11.433 13 13 11.433 13 9.5C13 7.567 11.433 6 9.5 6ZM5 9.5C5 7.01472 7.01472 5 9.5 5C11.9853 5 14 7.01472 14 9.5C14 11.9853 11.9853 14 9.5 14C7.01472 14 5 11.9853 5 9.5Z" fill="#FF16A2"/>
<path fill-rule="evenodd" clip-rule="evenodd" d="M7.50534 0.865969C8.58448 -0.288656 10.4155 -0.288657 11.4947 0.865969L12.0538 1.46424L11.6885 1.80565L12.0538 1.46424C12.3949 1.82919 12.8771 2.02891 13.3763 2.01204L14.1947 1.98438C15.7743 1.931 17.069 3.22575 17.0156 4.80525L16.988 5.62368C16.9711 6.12292 17.1708 6.6051 17.5358 6.94619L18.134 7.50534C19.2887 8.58448 19.2887 10.4155 18.134 11.4947L17.5358 12.0538C17.1708 12.3949 16.9711 12.8771 16.988 13.3763L17.0156 14.1947C17.069 15.7743 15.7743 17.069 14.1947 17.0156L13.3763 16.988C12.8771 16.9711 12.3949 17.1708 12.0538 17.5358L11.4947 18.134C10.4155 19.2887 8.58448 19.2887 7.50534 18.134L6.94619 17.5358C6.6051 17.1708 6.12292 16.9711 5.62368 16.988L4.80526 17.0156C3.22575 17.069 1.931 15.7743 1.98438 14.1947L2.01204 13.3763C2.02891 12.8771 1.82919 12.3949 1.46424 12.0538L0.865969 11.4947C-0.288656 10.4155 -0.288657 8.58448 0.865969 7.50534L1.19813 7.86074L0.865969 7.50534L1.46424 6.94619C1.82919 6.6051 2.02891 6.12292 2.01204 5.62368L1.98438 4.80525C1.931 3.22575 3.22575 1.931 4.80525 1.98438L5.62368 2.01204C6.12292 2.02891 6.6051 1.82919 6.94619 1.46424L7.50534 0.865969ZM10.7641 1.54879C10.0802 0.81707 8.91981 0.81707 8.23593 1.54879L7.67677 2.14706C7.13855 2.72294 6.37769 3.03809 5.5899 3.01147L4.77148 2.98381C3.7705 2.94998 2.94998 3.7705 2.98381 4.77148L3.01147 5.5899C3.03809 6.37769 2.72294 7.13855 2.14706 7.67677L1.54879 8.23593C0.81707 8.91981 0.81707 10.0802 1.54879 10.7641L2.14706 11.3232C2.72294 11.8615 3.03809 12.6223 3.01147 13.4101L2.98381 14.2285C2.94998 15.2295 3.7705 16.05 4.77148 16.0162L5.5899 15.9885C6.37769 15.9619 7.13855 16.2771 7.67677 16.8529L8.23593 17.4512C8.91981 18.1829 10.0802 18.1829 10.7641 17.4512L11.3232 16.8529C11.8615 16.2771 12.6223 15.9619 13.4101 15.9885L14.2285 16.0162C15.2295 16.05 16.05 15.2295 16.0162 14.2285L15.9885 13.4101C15.9619 12.6223 16.2771 11.8615 16.8529 11.3232L17.4512 10.7641C18.1829 10.0802 18.1829 8.91981 17.4512 8.23593L16.8529 7.67677C16.2771 7.13855 15.9619 6.37769 15.9885 5.5899L16.0162 4.77148C16.05 3.7705 15.2295 2.94998 14.2285 2.98381L13.4101 3.01147C12.6223 3.03809 11.8615 2.72294 11.3232 2.14706L10.7641 1.54879L11.1294 1.20738L10.7641 1.54879Z" fill="#1657FF"/>
</svg>
