<svg width="17" height="19" viewBox="0 0 17 19" fill="none" xmlns="http://www.w3.org/2000/svg">
<path fill-rule="evenodd" clip-rule="evenodd" d="M6.18104 17.115C6.39369 16.9388 6.70889 16.9684 6.88505 17.181C7.10666 17.4485 7.36465 17.6546 7.64123 17.7929C7.91732 17.931 8.2088 18 8.50001 18C8.79123 18 9.0827 17.931 9.3588 17.7929C9.63538 17.6546 9.89336 17.4485 10.115 17.181C10.2911 16.9684 10.6063 16.9388 10.819 17.115C11.0316 17.2911 11.0612 17.6063 10.8851 17.819C10.5814 18.1856 10.2158 18.4825 9.80601 18.6873C9.39579 18.8924 8.95167 19 8.50001 19C8.04836 19 7.60424 18.8924 7.19401 18.6873C6.78427 18.4825 6.41865 18.1856 6.11498 17.819C5.93881 17.6063 5.96839 17.2911 6.18104 17.115Z" fill="#FF16A2"/>
<path fill-rule="evenodd" clip-rule="evenodd" d="M8.5 0C8.77614 0 9 0.223858 9 0.5V1.5C9 1.77614 8.77614 2 8.5 2C8.22386 2 8 1.77614 8 1.5V0.5C8 0.223858 8.22386 0 8.5 0Z" fill="#FF16A2"/>
<path fill-rule="evenodd" clip-rule="evenodd" d="M2 7.5C2 3.91015 4.91015 1 8.5 1C12.0899 1 15 3.91015 15 7.5V11.382C15 11.8778 15.2801 12.331 15.7236 12.5528L16.0403 12.7111C16.6285 13.0052 17 13.6064 17 14.2639C17 15.2227 16.2227 16 15.2639 16H1.73607C0.777264 16 0 15.2227 0 14.2639C0 13.6064 0.371523 13.0052 0.959675 12.7111L1.27639 12.5528C1.71987 12.331 2 11.8778 2 11.382V7.5ZM8.5 2C5.46243 2 3 4.46243 3 7.5V11.382C3 12.2566 2.50587 13.0561 1.72361 13.4472L1.40689 13.6056C1.15752 13.7303 1 13.9851 1 14.2639C1 14.6705 1.32955 15 1.73607 15H15.2639C15.6705 15 16 14.6705 16 14.2639C16 13.9851 15.8425 13.7303 15.5931 13.6056L15.2764 13.4472C14.4941 13.0561 14 12.2566 14 11.382V7.5C14 4.46243 11.5376 2 8.5 2Z" fill="#1657FF"/>
</svg>
