<svg viewBox="0 0 21 20" fill="none" xmlns="http://www.w3.org/2000/svg">
<path fill-rule="evenodd" clip-rule="evenodd" d="M10.4227 0.000301725C10.3972 -0.000399501 10.3716 0.00012171 10.3462 0.00186357C10.3457 0.00186306 10.3451 0.00186306 10.3446 0.00186357C10.3441 0.00186306 10.3436 0.00186306 10.3431 0.00186357C10.342 0.00186153 10.341 0.00186153 10.3399 0.00186357C10.1151 0.0154308 9.90642 0.123174 9.76517 0.298614C9.63127 0.419173 4.65349 4.90089 2.65871 6.696L0.264406 8.84984C0.0520912 9.04123 -0.0419917 9.33135 0.0175974 9.61091C0.0771866 9.89047 0.281395 10.117 0.553299 10.2052C0.825203 10.2934 1.12349 10.2298 1.33581 10.0384L1.59976 9.80099V16.8012C1.59976 17.3995 1.59689 17.8592 1.6435 18.2741C1.6901 18.6889 1.79779 19.1246 2.13548 19.4626C2.47317 19.8007 2.90896 19.9093 3.32403 19.9562C3.73913 20.003 4.19944 19.9999 4.79847 19.9999H5.59815C6.1971 19.9999 6.65747 20.003 7.07258 19.9562C7.48768 19.9093 7.92344 19.8007 8.26114 19.4626C8.59884 19.1246 8.70652 18.6889 8.75312 18.2741C8.79972 17.8592 8.79685 17.3995 8.79685 16.8012V15.2019C8.79685 14.6042 8.80053 14.1663 8.82965 13.9072C8.84421 13.7775 8.86222 13.7088 8.87182 13.6776C8.90343 13.6676 8.97183 13.65 9.10142 13.6354C9.36059 13.6061 9.79804 13.6026 10.3962 13.6026C10.9943 13.6026 11.4317 13.6061 11.6909 13.6354C11.8205 13.65 11.8889 13.6676 11.9205 13.6776C11.9301 13.7088 11.9481 13.7775 11.9627 13.9072C11.9918 14.1664 11.9955 14.6042 11.9955 15.2019V16.8012C11.9955 17.4002 11.9924 17.8606 12.0392 18.2757C12.0861 18.6908 12.1947 19.1265 12.5328 19.4642C12.8708 19.8019 13.3065 19.9096 13.7213 19.9562C14.1362 20.0028 14.5959 20 15.1942 20H15.9938C16.5928 20 17.0532 20.0031 17.4683 19.9562C17.8834 19.9094 18.3191 19.8007 18.6568 19.4627C18.9945 19.1246 19.1022 18.6889 19.1488 18.2741C19.1954 17.8593 19.1925 17.3995 19.1925 16.8013V9.80102L19.4565 10.0384C19.7847 10.3343 20.2906 10.3081 20.5865 9.97985C20.8823 9.65164 20.8561 9.14573 20.5279 8.84987L18.1336 6.69603C16.1402 4.90213 11.1708 0.428353 11.0303 0.301765C11.0297 0.301244 11.0292 0.300723 11.0287 0.300203C10.881 0.115572 10.6591 0.00578175 10.4227 0.000325716L10.4227 0.000301725ZM10.3962 1.88545C10.7237 2.18019 12.2307 3.5359 13.6511 4.81394L17.0669 7.88772C17.4019 8.19108 17.5932 8.62136 17.5932 9.07316V16.8013C17.5932 17.399 17.5895 17.8369 17.5604 18.096C17.5459 18.2256 17.5279 18.2944 17.5182 18.3256C17.4866 18.3356 17.4182 18.3532 17.2887 18.3678C17.0295 18.397 16.592 18.4006 15.9939 18.4006H15.1942C14.5965 18.4006 14.1587 18.3969 13.8995 18.3678C13.7699 18.3532 13.7011 18.3352 13.6699 18.3256C13.6599 18.294 13.6424 18.2256 13.6277 18.096C13.5985 17.8369 13.5949 17.3994 13.5949 16.8013V15.2019C13.5949 14.6037 13.5978 14.144 13.5512 13.7291C13.5046 13.3143 13.3969 12.8786 13.0592 12.5405C12.7215 12.2025 12.2857 12.0938 11.8706 12.047C11.4555 12.0001 10.9952 12.0033 10.3962 12.0033C9.79717 12.0033 9.33688 12.0001 8.92177 12.047C8.50667 12.0938 8.07092 12.2025 7.73321 12.5405C7.39551 12.8786 7.28783 13.3143 7.24123 13.7291C7.19463 14.1439 7.1975 14.6037 7.1975 15.2019V16.8013C7.1975 17.399 7.19382 17.8369 7.1647 18.096C7.15014 18.2256 7.13213 18.2944 7.12253 18.3256C7.09092 18.3356 7.02252 18.3532 6.89294 18.3678C6.63376 18.397 6.19631 18.4006 5.59818 18.4006H4.79851C4.20036 18.4006 3.76293 18.3971 3.50376 18.3678C3.37417 18.3532 3.30577 18.3356 3.27417 18.3256C3.26456 18.2944 3.24655 18.2256 3.232 18.096C3.20288 17.8368 3.1992 17.3989 3.1992 16.8013V9.07316C3.1992 8.61985 3.39154 8.18808 3.72867 7.8846C4.68644 7.02271 5.65204 6.15403 7.14135 4.81402L10.3963 1.88553L10.3962 1.88545Z" fill="#9E9E9E"/>
</svg>
