<svg  viewBox="0 0 20 15" fill="none" xmlns="http://www.w3.org/2000/svg">
<path fill-rule="evenodd" clip-rule="evenodd" d="M19.3225 0.727729C19.3129 0.718144 19.3069 0.708559 19.3019 0.700372C19.2937 0.687126 19.2878 0.677541 19.2723 0.677541C18.8457 0.250941 18.2685 0 17.6161 0H2.38394C1.07905 0 0 1.07905 0 2.38394V12.4216C0 13.7265 1.07905 14.8055 2.38394 14.8055H17.6161C18.921 14.8055 20 13.7265 20 12.4216V2.38394C19.9749 1.75659 19.724 1.17942 19.3225 0.727729ZM2.38394 1.25471H17.6412L10.6148 6.19824C10.2384 6.47428 9.71142 6.47428 9.33501 6.19824L2.18319 1.2798C2.23338 1.25471 2.30866 1.25471 2.38394 1.25471ZM17.591 13.5508C18.2183 13.5508 18.7202 13.0489 18.7202 12.4216H18.7453V2.38394C18.7453 2.28356 18.7202 2.15809 18.6951 2.05772L11.3676 7.2271C10.941 7.50314 10.4642 7.6537 9.98745 7.6537C9.51066 7.6537 9.03388 7.50314 8.63237 7.2271L1.2798 2.18319C1.25471 2.23338 1.25471 2.30866 1.25471 2.38394V12.4216C1.25471 13.0489 1.75659 13.5508 2.38394 13.5508H17.591Z" fill="#9E9E9E"/>
</svg>
