<svg viewBox="0 0 19 21" fill="none" xmlns="http://www.w3.org/2000/svg">
<path fill-rule="evenodd" clip-rule="evenodd" d="M9.27113 9.84692C11.9894 9.84692 14.193 7.64333 14.193 4.92505C14.193 2.20677 11.9894 0.00317383 9.27113 0.00317383C6.55285 0.00317383 4.34925 2.20677 4.34925 4.92505C4.35291 7.64181 6.55437 9.84327 9.27113 9.84692ZM9.27113 1.46919C11.1792 1.46919 12.7261 3.01592 12.7262 4.92401C12.7263 6.83209 11.1797 8.37906 9.27165 8.37935C7.36356 8.37963 5.81648 6.83313 5.81605 4.92505C5.81885 3.01821 7.36429 1.47329 9.27113 1.47114V1.46919ZM9.27113 12.2C4.96839 12.2 1.468 15.7004 1.468 20.0032H3.36771e-05C-0.00661437 17.543 0.971253 15.1825 2.71566 13.4477C5.36717 10.7963 9.3547 10.0032 12.819 11.4381C16.2832 12.8731 18.5421 16.2535 18.5422 20.0032H17.0743C17.0743 15.7004 13.5739 12.2 9.27113 12.2Z" fill="#9E9E9E"/>
</svg>
