<svg width="19" height="19" viewBox="0 0 19 19" fill="none" xmlns="http://www.w3.org/2000/svg">
<path fill-rule="evenodd" clip-rule="evenodd" d="M8 1C4.13401 1 1 4.13401 1 8C1 11.866 4.13401 15 8 15C11.866 15 15 11.866 15 8C15 4.13401 11.866 1 8 1ZM0 8C0 3.58172 3.58172 0 8 0C12.4183 0 16 3.58172 16 8C16 12.4183 12.4183 16 8 16C3.58172 16 0 12.4183 0 8Z" fill="#1657FF"/>
<path fill-rule="evenodd" clip-rule="evenodd" d="M14.1464 14.1464C14.3417 13.9512 14.6583 13.9512 14.8536 14.1464L18.8536 18.1464C19.0488 18.3417 19.0488 18.6583 18.8536 18.8536C18.6583 19.0488 18.3417 19.0488 18.1464 18.8536L14.1464 14.8536C13.9512 14.6583 13.9512 14.3417 14.1464 14.1464Z" fill="#FF16A2"/>
</svg>
