<svg width="17" height="17" viewBox="0 0 17 17" fill="none" xmlns="http://www.w3.org/2000/svg">
<path fill-rule="evenodd" clip-rule="evenodd" d="M6.11019 1.27688C6.5009 0.88618 7.0308 0.666687 7.58333 0.666687C8.13587 0.666687 8.66577 0.88618 9.05647 1.27688C9.34747 1.56787 9.54349 1.93609 9.62458 2.33335H11.75C13.3608 2.33335 14.6667 3.63919 14.6667 5.25002V7.37544C15.0639 7.45653 15.4321 7.65255 15.7231 7.94355C16.1138 8.33425 16.3333 8.86415 16.3333 9.41669C16.3333 9.96922 16.1138 10.4991 15.7231 10.8898C15.4321 11.1808 15.0639 11.3768 14.6667 11.4579V13.5834C14.6667 15.1942 13.3608 16.5 11.75 16.5H9.25C9.01988 16.5 8.83333 16.3135 8.83333 16.0834C8.83333 15.7518 8.70164 15.4339 8.46722 15.1995C8.2328 14.965 7.91485 14.8334 7.58333 14.8334C7.25181 14.8334 6.93387 14.965 6.69945 15.1995C6.46503 15.4339 6.33333 15.7518 6.33333 16.0834C6.33333 16.3135 6.14679 16.5 5.91667 16.5H3.41667C1.80584 16.5 0.5 15.1942 0.5 13.5834V11.0834C0.5 10.8532 0.686548 10.6667 0.916667 10.6667C1.24819 10.6667 1.56613 10.535 1.80055 10.3006L2.09518 10.5952L1.80055 10.3006C2.03497 10.0661 2.16667 9.74821 2.16667 9.41669C2.16667 9.08517 2.03497 8.76722 1.80055 8.5328C1.56613 8.29838 1.24819 8.16669 0.916667 8.16669C0.686548 8.16669 0.5 7.98014 0.5 7.75002V5.25002C0.5 3.63919 1.80584 2.33335 3.41667 2.33335L5.54208 2.33335C5.62318 1.93609 5.8192 1.56787 6.11019 1.27688ZM7.58333 1.50002C7.25181 1.50002 6.93387 1.63172 6.69945 1.86614C6.46503 2.10056 6.33333 2.4185 6.33333 2.75002C6.33333 2.98014 6.14679 3.16669 5.91667 3.16669L3.41667 3.16669C2.26607 3.16669 1.33333 4.09943 1.33333 5.25002V7.37544C1.7306 7.45653 2.09881 7.65256 2.38981 7.94355C2.78051 8.33425 3 8.86415 3 9.41669C3 9.96922 2.78051 10.4991 2.38981 10.8898C2.09881 11.1808 1.7306 11.3768 1.33333 11.4579V13.5834C1.33333 14.7339 2.26607 15.6667 3.41667 15.6667H5.54208C5.62318 15.2694 5.8192 14.9012 6.11019 14.6102L6.40482 14.9048L6.11019 14.6102C6.5009 14.2195 7.0308 14 7.58333 14C8.13587 14 8.66577 14.2195 9.05647 14.6102C9.34747 14.9012 9.54349 15.2694 9.62458 15.6667H11.75C12.9006 15.6667 13.8333 14.7339 13.8333 13.5834V11.0834C13.8333 10.8532 14.0199 10.6667 14.25 10.6667C14.5815 10.6667 14.8995 10.535 15.1339 10.3006C15.3683 10.0661 15.5 9.74821 15.5 9.41669C15.5 9.08517 15.3683 8.76722 15.1339 8.5328C14.8995 8.29838 14.5815 8.16669 14.25 8.16669C14.0199 8.16669 13.8333 7.98014 13.8333 7.75002V5.25002C13.8333 4.09943 12.9006 3.16669 11.75 3.16669H9.25C9.01988 3.16669 8.83333 2.98014 8.83333 2.75002C8.83333 2.4185 8.70164 2.10056 8.46722 1.86614L8.76184 1.57151L8.46722 1.86614C8.2328 1.63172 7.91485 1.50002 7.58333 1.50002Z" fill="#B9C0DE"/>
</svg>
