<svg width="13" height="11" viewBox="0 0 13 11" fill="none" xmlns="http://www.w3.org/2000/svg">
<path fill-rule="evenodd" clip-rule="evenodd" d="M9.9375 0.375C10.1101 0.375 10.25 0.514911 10.25 0.6875L10.25 1.9375C10.25 2.11009 10.1101 2.25 9.9375 2.25C9.76491 2.25 9.625 2.11009 9.625 1.9375L9.625 0.6875C9.625 0.514911 9.76491 0.375 9.9375 0.375Z" fill="#BACCFD"/>
<path fill-rule="evenodd" clip-rule="evenodd" d="M4.3125 0.375C4.48509 0.375 4.625 0.514911 4.625 0.6875L4.625 1.9375C4.625 2.11009 4.48509 2.25 4.3125 2.25C4.13991 2.25 4 2.11009 4 1.9375L4 0.6875C4 0.514911 4.13991 0.375 4.3125 0.375Z" fill="#BACCFD"/>
<path fill-rule="evenodd" clip-rule="evenodd" d="M0.875 3.8125C0.875 2.60438 1.85438 1.625 3.0625 1.625H10.5625C11.7706 1.625 12.75 2.60438 12.75 3.8125V8.8125C12.75 10.0206 11.7706 11 10.5625 11H3.0625C1.85438 11 0.875 10.0206 0.875 8.8125V3.8125ZM3.0625 2.25C2.19956 2.25 1.5 2.94956 1.5 3.8125V8.8125C1.5 9.67544 2.19956 10.375 3.0625 10.375H10.5625C11.4254 10.375 12.125 9.67544 12.125 8.8125V3.8125C12.125 2.94956 11.4254 2.25 10.5625 2.25H3.0625Z" fill="#BACCFD"/>
<path fill-rule="evenodd" clip-rule="evenodd" d="M0.875 4.4375C0.875 4.26491 1.01491 4.125 1.1875 4.125H12.4375C12.6101 4.125 12.75 4.26491 12.75 4.4375C12.75 4.61009 12.6101 4.75 12.4375 4.75H1.1875C1.01491 4.75 0.875 4.61009 0.875 4.4375Z" fill="#BACCFD"/>
<path fill-rule="evenodd" clip-rule="evenodd" d="M2.75 6.3125C2.75 6.13991 2.88991 6 3.0625 6H4.3125C4.48509 6 4.625 6.13991 4.625 6.3125C4.625 6.48509 4.48509 6.625 4.3125 6.625H3.0625C2.88991 6.625 2.75 6.48509 2.75 6.3125Z" fill="#BACCFD"/>
<path fill-rule="evenodd" clip-rule="evenodd" d="M2.75 8.8125C2.75 8.63991 2.88991 8.5 3.0625 8.5H4.3125C4.48509 8.5 4.625 8.63991 4.625 8.8125C4.625 8.98509 4.48509 9.125 4.3125 9.125H3.0625C2.88991 9.125 2.75 8.98509 2.75 8.8125Z" fill="#BACCFD"/>
<path fill-rule="evenodd" clip-rule="evenodd" d="M5.875 6.3125C5.875 6.13991 6.01491 6 6.1875 6H7.4375C7.61009 6 7.75 6.13991 7.75 6.3125C7.75 6.48509 7.61009 6.625 7.4375 6.625H6.1875C6.01491 6.625 5.875 6.48509 5.875 6.3125Z" fill="#BACCFD"/>
<path fill-rule="evenodd" clip-rule="evenodd" d="M5.875 8.8125C5.875 8.63991 6.01491 8.5 6.1875 8.5H7.4375C7.61009 8.5 7.75 8.63991 7.75 8.8125C7.75 8.98509 7.61009 9.125 7.4375 9.125H6.1875C6.01491 9.125 5.875 8.98509 5.875 8.8125Z" fill="#BACCFD"/>
<path fill-rule="evenodd" clip-rule="evenodd" d="M9 6.3125C9 6.13991 9.13991 6 9.3125 6H10.5625C10.7351 6 10.875 6.13991 10.875 6.3125C10.875 6.48509 10.7351 6.625 10.5625 6.625H9.3125C9.13991 6.625 9 6.48509 9 6.3125Z" fill="#BACCFD"/>
<path fill-rule="evenodd" clip-rule="evenodd" d="M9 8.8125C9 8.63991 9.13991 8.5 9.3125 8.5H10.5625C10.7351 8.5 10.875 8.63991 10.875 8.8125C10.875 8.98509 10.7351 9.125 10.5625 9.125H9.3125C9.13991 9.125 9 8.98509 9 8.8125Z" fill="#BACCFD"/>
</svg>
