<svg width="17" height="17" viewBox="0 0 17 17" fill="none" xmlns="http://www.w3.org/2000/svg">
<path fill-rule="evenodd" clip-rule="evenodd" d="M0.5 3.58332C0.5 1.97249 1.80584 0.666656 3.41667 0.666656H5.91667C7.5275 0.666656 8.83333 1.97249 8.83333 3.58332V6.08332C8.83333 7.69415 7.5275 8.99999 5.91667 8.99999H3.41667C1.80584 8.99999 0.5 7.69415 0.5 6.08332V3.58332ZM3.41667 1.49999C2.26607 1.49999 1.33333 2.43273 1.33333 3.58332V6.08332C1.33333 7.23392 2.26607 8.16666 3.41667 8.16666H5.91667C7.06726 8.16666 8 7.23392 8 6.08332V3.58332C8 2.43273 7.06726 1.49999 5.91667 1.49999H3.41667Z" fill="#B9C0DE"/>
<path fill-rule="evenodd" clip-rule="evenodd" d="M0.5 11.9166C0.5 10.7661 1.43274 9.83331 2.58333 9.83331H5.08333C6.23393 9.83331 7.16667 10.7661 7.16667 11.9166V14.4166C7.16667 15.5672 6.23393 16.5 5.08333 16.5H2.58333C1.43274 16.5 0.5 15.5672 0.5 14.4166V11.9166ZM2.58333 10.6666C1.89298 10.6666 1.33333 11.2263 1.33333 11.9166V14.4166C1.33333 15.107 1.89298 15.6666 2.58333 15.6666H5.08333C5.77369 15.6666 6.33333 15.107 6.33333 14.4166V11.9166C6.33333 11.2263 5.77369 10.6666 5.08333 10.6666H2.58333Z" fill="#B9C0DE"/>
<path fill-rule="evenodd" clip-rule="evenodd" d="M9.66663 2.74999C9.66663 1.5994 10.5994 0.666656 11.75 0.666656H14.25C15.4006 0.666656 16.3333 1.5994 16.3333 2.74999V5.24999C16.3333 6.40058 15.4006 7.33332 14.25 7.33332H11.75C10.5994 7.33332 9.66663 6.40058 9.66663 5.24999V2.74999ZM11.75 1.49999C11.0596 1.49999 10.5 2.05963 10.5 2.74999V5.24999C10.5 5.94034 11.0596 6.49999 11.75 6.49999H14.25C14.9403 6.49999 15.5 5.94035 15.5 5.24999V2.74999C15.5 2.05963 14.9403 1.49999 14.25 1.49999H11.75Z" fill="#B9C0DE"/>
<path fill-rule="evenodd" clip-rule="evenodd" d="M8 11.0833C8 9.47249 9.30584 8.16666 10.9167 8.16666H13.4167C15.0275 8.16666 16.3333 9.47249 16.3333 11.0833V13.5833C16.3333 15.1942 15.0275 16.5 13.4167 16.5H10.9167C9.30584 16.5 8 15.1942 8 13.5833V11.0833ZM10.9167 8.99999C9.76607 8.99999 8.83333 9.93273 8.83333 11.0833V13.5833C8.83333 14.7339 9.76607 15.6667 10.9167 15.6667H13.4167C14.5673 15.6667 15.5 14.7339 15.5 13.5833V11.0833C15.5 9.93273 14.5673 8.99999 13.4167 8.99999H10.9167Z" fill="#B9C0DE"/>
</svg>
