<svg width="19" height="11" viewBox="0 0 19 11" fill="none" xmlns="http://www.w3.org/2000/svg">
<path d="M11.25 5.93519C11.25 6.85567 10.5038 7.60186 9.58329 7.60186C8.66282 7.60186 7.91663 6.85567 7.91663 5.93519C7.91663 5.01472 8.66282 4.26852 9.58329 4.26852C10.5038 4.26852 11.25 5.01472 11.25 5.93519Z" fill="#B9C0DE"/>
<path fill-rule="evenodd" clip-rule="evenodd" d="M13.0203 2.27985C13.1913 2.12587 13.4548 2.13968 13.6088 2.31069C14.3742 3.16076 14.8508 4.23133 14.9704 5.36895C15.09 6.50657 14.8463 7.65284 14.2744 8.64348C14.1593 8.84277 13.9045 8.91105 13.7052 8.79599C13.5059 8.68093 13.4376 8.4261 13.5527 8.22681C14.0366 7.38858 14.2428 6.41866 14.1416 5.45606C14.0404 4.49345 13.6371 3.58759 12.9895 2.8683C12.8355 2.69728 12.8493 2.43383 13.0203 2.27985Z" fill="#B9C0DE"/>
<path fill-rule="evenodd" clip-rule="evenodd" d="M15.7115 0.607027C15.8825 0.453047 16.1459 0.466854 16.2999 0.637866C17.4186 1.88028 18.1152 3.44496 18.29 5.10763C18.4647 6.77031 18.1086 8.44563 17.2727 9.89348C17.1577 10.0928 16.9028 10.1611 16.7036 10.046C16.5043 9.93094 16.436 9.67611 16.551 9.47682C17.299 8.18137 17.6176 6.6824 17.4612 5.19474C17.3049 3.70708 16.6816 2.30711 15.6806 1.19547C15.5267 1.02446 15.5405 0.761006 15.7115 0.607027Z" fill="#B9C0DE"/>
<path fill-rule="evenodd" clip-rule="evenodd" d="M6.14631 2.27985C5.9753 2.12587 5.71185 2.13968 5.55787 2.31069C4.79246 3.16076 4.31581 4.23133 4.19624 5.36895C4.07667 6.50657 4.32032 7.65284 4.89226 8.64348C5.00732 8.84277 5.26215 8.91105 5.46144 8.79599C5.66073 8.68093 5.72901 8.4261 5.61395 8.22681C5.13 7.38858 4.92383 6.41866 5.02501 5.45606C5.12618 4.49345 5.5295 3.58759 6.17715 2.8683C6.33113 2.69728 6.31733 2.43383 6.14631 2.27985Z" fill="#B9C0DE"/>
<path fill-rule="evenodd" clip-rule="evenodd" d="M3.45515 0.607027C3.28414 0.453047 3.02068 0.466854 2.8667 0.637866C1.74803 1.88028 1.05139 3.44496 0.876635 5.10763C0.701881 6.77031 1.05798 8.44563 1.8939 9.89348C2.00896 10.0928 2.26379 10.1611 2.46308 10.046C2.66236 9.93094 2.73065 9.67611 2.61559 9.47682C1.86766 8.18137 1.54904 6.6824 1.7054 5.19474C1.86176 3.70708 2.48507 2.30711 3.48599 1.19547C3.63997 1.02446 3.62616 0.761006 3.45515 0.607027Z" fill="#B9C0DE"/>
</svg>
