<svg width="17" height="15" viewBox="0 0 17 15" fill="none" xmlns="http://www.w3.org/2000/svg">
<path fill-rule="evenodd" clip-rule="evenodd" d="M0.916667 0.500092C1.14679 0.500092 1.33333 0.68664 1.33333 0.916758V13.8334H15.9167C16.1468 13.8334 16.3333 14.02 16.3333 14.2501C16.3333 14.4802 16.1468 14.6668 15.9167 14.6668H0.916667C0.686548 14.6668 0.5 14.4802 0.5 14.2501V0.916758C0.5 0.68664 0.686548 0.500092 0.916667 0.500092Z" fill="#B9C0DE"/>
<path fill-rule="evenodd" clip-rule="evenodd" d="M15.2558 0.537449C15.4652 0.632673 15.5579 0.879694 15.4627 1.08919L11.296 10.2559C11.2284 10.4046 11.0801 10.5001 10.9167 10.5001H6.08926L3.71129 12.8781C3.54858 13.0408 3.28476 13.0408 3.12204 12.8781C2.95932 12.7153 2.95932 12.4515 3.12204 12.2888L5.62204 9.78881C5.70018 9.71067 5.80616 9.66677 5.91667 9.66677H10.6484L14.704 0.744351C14.7992 0.534858 15.0463 0.442225 15.2558 0.537449Z" fill="#B9C0DE"/>
</svg>
