<svg width="24" height="24" viewBox="0 0 24 24" fill="none" xmlns="http://www.w3.org/2000/svg">
<path fill-rule="evenodd" clip-rule="evenodd" d="M12.3113 18.832C12.1124 19.056 11.7625 19.056 11.5636 18.832L5.12911 11.5878C4.84266 11.2653 5.07159 10.7558 5.50293 10.7558H7.93757C8.21371 10.7558 8.43757 10.5319 8.43757 10.2558V4.00573C8.43757 3.72959 8.66143 3.50573 8.93757 3.50573H14.9376C15.2137 3.50573 15.4376 3.72959 15.4376 4.00573V10.2558C15.4376 10.5319 15.6614 10.7558 15.9376 10.7558H18.3719C18.8033 10.7558 19.0322 11.2653 18.7458 11.5878L12.3113 18.832L12.6851 19.1641L12.3113 18.832ZM10.816 19.4961C11.4127 20.1679 12.4622 20.1679 13.0589 19.4961L19.4934 12.2519C20.3528 11.2845 19.666 9.75579 18.3719 9.75579H16.4376V4.00573C16.4376 3.1773 15.766 2.50573 14.9376 2.50573H8.93757C8.10914 2.50573 7.43757 3.17731 7.43757 4.00573V9.75579H5.50293C4.20892 9.75579 3.52211 11.2845 4.38145 12.2519L10.816 19.4961Z" fill="white"/>
</svg>
