<svg width="24" height="24" viewBox="0 0 24 24" fill="none" xmlns="http://www.w3.org/2000/svg">
<path fill-rule="evenodd" clip-rule="evenodd" d="M12.3113 4.16799C12.1124 3.94405 11.7625 3.94405 11.5636 4.16799L5.12911 11.4122C4.84266 11.7347 5.07159 12.2442 5.50293 12.2442H7.93757C8.21371 12.2442 8.43757 12.4681 8.43757 12.7442V18.9943C8.43757 19.2704 8.66143 19.4943 8.93757 19.4943H14.9376C15.2137 19.4943 15.4376 19.2704 15.4376 18.9943V12.7442C15.4376 12.4681 15.6614 12.2442 15.9376 12.2442H18.3719C18.8033 12.2442 19.0322 11.7347 18.7458 11.4122L12.3113 4.16799L12.6851 3.83594L12.3113 4.16799ZM10.816 3.5039C11.4127 2.83207 12.4622 2.83208 13.0589 3.5039L19.4934 10.7481C20.3528 11.7155 19.666 13.2442 18.3719 13.2442H16.4376V18.9943C16.4376 19.8227 15.766 20.4943 14.9376 20.4943H8.93757C8.10914 20.4943 7.43757 19.8227 7.43757 18.9943V13.2442H5.50293C4.20892 13.2442 3.52211 11.7155 4.38145 10.7481L10.816 3.5039Z" fill="white"/>
</svg>
